<?xml version="1.0" encoding="UTF-8"?><svg id="Logos_colored" xmlns="http://www.w3.org/2000/svg" viewBox="0 0 407.82 78.74"><defs><style>.cls-1{fill:#e0743f;}.cls-2{fill:#c15934;}.cls-3{fill:#e58b59;}</style></defs><path class="cls-2" d="M77.64,29.03c2.33,0,3.94.25,5.46,1.58,1.68,1.49,2.11,3.51,2.11,4.99,0,.81-.12,3.04-1.71,4.62-1.15,1.15-2.85,1.83-5.24,1.83h-2.61v7.66h-4.03v-20.69h6.02ZM75.65,38.58h1.64c.78,0,1.77,0,2.64-.65.74-.59,1.12-1.52,1.12-2.42,0-1.15-.56-1.92-1.15-2.36-.84-.59-1.89-.65-2.85-.65h-1.4v6.08Z"/><path class="cls-2" d="M96.76,29.03c2.85,0,4.31.74,5.27,1.55,1.58,1.33,2.05,3.1,2.05,4.65,0,2.02-.81,3.78-2.42,4.87-.53.37-1.27.71-2.26.9l6.45,8.72h-5.03l-5.52-8.31h-.5v8.31h-4.03v-20.69h5.99ZM94.81,38.55h1.15c.78,0,3.97-.09,3.97-3.13s-3.16-3.1-3.91-3.1h-1.21v6.24Z"/><path class="cls-2" d="M115.16,29.03v20.69h-4.03v-20.69h4.03Z"/><path class="cls-2" d="M124.66,29.03l5.52,13.9,5.52-13.9h4.4l-8.75,20.69h-2.42l-8.69-20.69h4.4Z"/><path class="cls-2" d="M155.33,45.37h-8.34l-1.83,4.34h-4.37l8.9-20.69h3.16l8.65,20.69h-4.34l-1.83-4.34ZM154.15,42.09l-2.95-7.44-2.95,7.44h5.89Z"/><path class="cls-2" d="M171.8,32.5v17.22h-4.03v-17.22h-4.65v-3.47h13.34v3.47h-4.65Z"/><path class="cls-2" d="M193.12,32.5h-7.44v4.62h7.13v3.47h-7.13v5.65h7.44v3.47h-11.48v-20.69h11.48v3.47Z"/><path class="cls-2" d="M216.48,29.03c2.33,0,3.94.25,5.46,1.58,1.68,1.49,2.11,3.51,2.11,4.99,0,.81-.12,3.04-1.71,4.62-1.15,1.15-2.85,1.83-5.24,1.83h-2.61v7.66h-4.03v-20.69h6.02ZM214.49,38.58h1.64c.78,0,1.77,0,2.64-.65.74-.59,1.12-1.52,1.12-2.42,0-1.15-.56-1.92-1.15-2.36-.84-.59-1.89-.65-2.85-.65h-1.4v6.08Z"/><path class="cls-2" d="M240.37,45.37h-8.34l-1.83,4.34h-4.37l8.9-20.69h3.16l8.65,20.69h-4.34l-1.83-4.34ZM239.19,42.09l-2.95-7.44-2.95,7.44h5.89Z"/><path class="cls-2" d="M265.58,48.97c-1.24.65-2.88,1.21-5.12,1.21-3.63,0-5.83-1.24-7.57-2.88-2.39-2.3-3.32-4.87-3.32-7.91,0-3.75,1.55-6.45,3.32-8.1,2.08-1.95,4.65-2.73,7.6-2.73,1.46,0,3.2.25,5.09,1.27v4.72c-1.89-2.17-4.25-2.33-4.99-2.33-4.16,0-6.86,3.41-6.86,7.23,0,4.59,3.54,7.07,7.01,7.07,1.92,0,3.63-.84,4.84-2.26v4.72Z"/><path class="cls-2" d="M276.43,37.77l7.6-8.75h5.09l-8.75,9.55,9.21,11.14h-5.34l-7.35-9.28-.47.47v8.81h-4.03v-20.69h4.03v8.75Z"/><path class="cls-2" d="M308.3,45.37h-8.34l-1.83,4.34h-4.37l8.9-20.69h3.16l8.65,20.69h-4.34l-1.83-4.34ZM307.12,42.09l-2.95-7.44-2.95,7.44h5.89Z"/><path class="cls-2" d="M329.01,38.64h9.49v.25c0,1.4-.19,5.74-3.04,8.56-2.14,2.14-4.78,2.73-7.35,2.73s-5.24-.53-7.51-2.79c-.71-.71-3.07-3.32-3.07-7.97,0-4,1.8-6.45,3.04-7.69,1.55-1.58,4.16-3.16,8.16-3.16,1.55,0,3.19.25,4.78,1.09,1.33.68,2.79,1.92,3.88,3.78l-3.51,1.89c-.71-1.4-1.77-2.11-2.42-2.45-.87-.43-1.95-.65-2.92-.65-1.64,0-3.51.59-4.78,1.83-1.18,1.15-2.08,3.13-2.08,5.46,0,2.76,1.18,4.4,2.05,5.24.93.9,2.39,1.77,4.59,1.77,1.36,0,2.92-.37,4.06-1.24.81-.62,1.61-1.68,1.95-3.16h-5.34v-3.47Z"/><path class="cls-2" d="M348.86,29.03v20.69h-4.03v-20.69h4.03Z"/><path class="cls-2" d="M366.22,33.74c-1.21-1.61-2.64-1.77-3.38-1.77-2.17,0-2.85,1.36-2.85,2.42,0,.5.16.96.65,1.4.5.47,1.18.71,2.48,1.18,1.61.56,3.13,1.12,4.19,2.08.93.84,1.77,2.23,1.77,4.34,0,4.03-2.92,6.79-7.2,6.79-3.82,0-6.05-2.33-7.13-3.91l2.64-2.51c.99,2.02,2.88,2.76,4.34,2.76,1.83,0,3.2-1.12,3.2-2.85,0-.74-.25-1.33-.81-1.86-.78-.71-2.02-1.12-3.2-1.52-1.09-.37-2.39-.87-3.44-1.8-.68-.59-1.64-1.74-1.64-3.85,0-3.04,2.05-6.08,6.64-6.08,1.3,0,3.75.25,5.86,2.42l-2.11,2.76Z"/><path class="cls-2" d="M382.01,32.5v17.22h-4.03v-17.22h-4.65v-3.47h13.34v3.47h-4.65Z"/><path class="cls-1" d="M24.91,41.41v4.45l-3.55-1.89c-.13-.07-.21-.2-.21-.34s.08-.27.21-.34l3.55-1.89Z"/><path class="cls-2" d="M48.38,41.77v13.25c0,.31-.25.56-.56.56h-2.17v-12.83l2.32-1.07.4.09Z"/><path class="cls-1" d="M63.5,40.43s-.05.02-.06.02c-.01,0-.03,0-.04-.01l-4.24-.5,2.57-2.93s.03-.06.03-.1c.5.93,1.72,3.19,1.8,3.33,0,0,0,.02.01.02.03.06,0,.14-.06.16Z"/><path class="cls-2" d="M35.11,52.07l-4.52,4.52c-.14.15-.34.23-.55.23h-4.35c-.43,0-.78-.35-.78-.78v-22.92c0-.26.13-.51.35-.65l7.3-4.79c.12-.08.28-.13.43-.13h2.11s0,0,0,0c0,0-.01,0-.02,0-.03,0-.06.02-.08.04l-2.77,3.05c-.14.16-.22.37-.22.57v2.79l-6.1,3.41c-.14.08-.23.2-.27.35-.04.15,0,.32.08.45l8.88,12.92.52.78c.03.05.03.12-.02.16Z"/><path class="cls-1" d="M45.65,42.75v13.55c0,.13-.04.26-.14.36-.1.1-.23.16-.38.16h-6.32c-.18,0-.35-.09-.46-.24l-3.75-5.46-8.88-12.92c-.09-.13-.12-.29-.08-.45.04-.15.13-.27.27-.35l6.1-3.41v8.17c0,.31.25.56.55.56l12.82.06h.14s0,0,0,0c0,0,.02,0,.03,0,0,0,.02,0,.03,0,0,0,0,0,.01,0l.05-.02Z"/><path class="cls-1" d="M45.65,42.71v.04l-.05.02s.04-.03.05-.05c0,0,0,0,0-.01Z"/><path class="cls-2" d="M47.29,25.9h-7.72v-3.71c0-.09.04-.18.12-.22.03-.03.07-.04.12-.04.04,0,.09,0,.12.03l7.28,3.91s.05.03.06.05Z"/><path class="cls-2" d="M61.72,37.01l-2.57,2.93-3.06,3.49s-.03.03-.05.04c0,0,.01-.01.02-.02.03-.04.03-.1,0-.14l-2.36-3.77-.16-.92,2.58-2.46s.07-.04.11-.04l5.41.68s.09.04.1.08c0,.01,0,.02,0,.03,0,.03,0,.07-.03.1Z"/><path class="cls-1" d="M56.06,43.45s-.01.01-.02.02c-.02.02-.05.03-.09.03,0,0-.02,0-.03,0l-7.55-1.73-.4-.09-2.38,1.1s.04-.03.05-.05c.02-.04.02-.09,0-.13l-.07-.1-10.36-14.89s-.06-.05-.1-.05c0,0-.01,0-.02,0l3.54-1.58c.12-.06.26-.08.35-.08h8.32s.06,0,.08.03l4.33,3.42c.18.14.3.33.34.56l1.5,8.7.16.92,2.36,3.77s.03.1,0,.14Z"/><path class="cls-3" d="M45.66,42.68s0,0,0,.01c0,0,0,.01,0,.02,0,0,0,0,0,.01-.01.02-.03.04-.05.05,0,0,0,0-.01,0,0,0-.02,0-.03,0,0,0-.02,0-.03,0h-.14s-12.82-.06-12.82-.06c-.3,0-.55-.25-.55-.56v-10.96c0-.2.08-.41.22-.57l2.77-3.05s.05-.04.08-.04c0,0,.01,0,.02,0,.02,0,.03,0,.05.01,0,0,0,0,.01,0,0,0,.01,0,.02.01,0,0,0,0,.01.01,0,0,0,0,0,0h0s10.35,14.89,10.35,14.89l.07.1s.03.06.02.09Z"/></svg>