<?xml version="1.0" standalone="no"?> <!DOCTYPE svg PUBLIC "-//W3C//DTD SVG 1.0//EN" "http://www.w3.org/TR/2001/REC-SVG-20010904/DTD/svg10.dtd" > <svg xmlns="http://www.w3.org/2000/svg" width="100%" height="100%">
<defs >
<font id="sosa" horiz-adv-x="1467" ><font-face
    font-family="Sosa"
    units-per-em="2048"
    panose-1="0 0 0 0 0 0 0 0 0 0"
    ascent="1491"
    descent="-613"
    alphabetic="0" />
<missing-glyph horiz-adv-x="2048" />
<glyph unicode=" " glyph-name="space" horiz-adv-x="438" />
<glyph unicode="!" glyph-name="exclam" horiz-adv-x="2048" d="M854 -388T854 -317T904 -197T1024 -147T1144 -196T1194 -317T1144 -438T1024 -489T904 -439ZM854 1047Q854 1118 904 1168T1024 1219T1144 1169T1194 1047Q1194 1030 1192 1022L1110 23H938L856
1022Q854 1030 854 1047Z" />
<glyph unicode="&quot;" glyph-name="quotedbl" horiz-adv-x="561" />
<glyph unicode="#" glyph-name="numbersign" horiz-adv-x="1409" />
<glyph unicode="$" glyph-name="dollar" horiz-adv-x="2048" d="M512 23H854Q854 -24 876 -62T938 -125V201Q755 232 634 375T512 707Q512 793 540 875T614 1012Q667 1088 751 1140T938 1210V1303H1110V1210Q1293 1179 1414 1038T1536 707H1194Q1194 803 1110
854V528Q1293 497 1414 355T1536 23Q1536 -63 1508 -146T1434 -283Q1381 -359 1297 -411T1110 -481V-573H938V-481Q755 -450 634 -308T512 23ZM854 707Q854 660 876 621T938 557V854Q854 803 854 707ZM1110 -125Q1149 -101 1171 -63T1194 23T1172 109T1110 172V-125Z"
/>
<glyph unicode="%" glyph-name="percent" horiz-adv-x="1230" />
<glyph unicode="&amp;" glyph-name="ampersand" horiz-adv-x="1128" />
<glyph unicode="&apos;" glyph-name="quotesingle" horiz-adv-x="141" />
<glyph unicode="(" glyph-name="parenleft" horiz-adv-x="391" />
<glyph unicode=")" glyph-name="parenright" horiz-adv-x="587" />
<glyph unicode="*" glyph-name="asterisk" horiz-adv-x="532" />
<glyph unicode="+" glyph-name="plus" horiz-adv-x="970" />
<glyph unicode="," glyph-name="comma" horiz-adv-x="327" />
<glyph unicode="-" glyph-name="hyphen" horiz-adv-x="903" />
<glyph unicode="." glyph-name="period" horiz-adv-x="337" />
<glyph unicode="/" glyph-name="slash" horiz-adv-x="2048" d="M598 -229V1255Q598 1326 648 1375T768 1425Q833 1438 1024 1438T1280 1425Q1350 1425 1400 1376T1450 1255V-229Q1450 -298 1404 -347T1290 -399Q1289 -399 1286 -400T1280 -401H768Q766 -401 763
-400T758 -399Q690 -396 644 -347T598 -229ZM713 518H1335V1190H713V518ZM895 213Q895 196 908 183T938 170H1110Q1127 170 1139 183T1151 213V383Q1151 402 1139 414T1110 426H938Q920 426 908 414T895 383V213Z" />
<glyph unicode="0" glyph-name="zero" horiz-adv-x="2048" d="M170 -45V381Q170 520 213 650T335 886T519 1070T754 1192T1024 1235T1293 1192T1529 1070T1713 886T1835 651T1878 381V-45H1792V381Q1792 590 1689 766T1410 1046T1024 1149T639 1046T359 767T256
381V-45H170ZM342 -215V467H469Q523 467 560 430T598 338V-88Q598 -141 561 -178T469 -215H342ZM1450 -88V338Q1450 392 1487 429T1579 467H1706V-215H1579Q1525 -215 1488 -178T1450 -88Z" />
<glyph unicode="1" glyph-name="one" horiz-adv-x="2048" d="M170 -45V637Q170 708 221 758T342 809H682L768 979Q784 1009 792 1023T817 1051T854 1065H1194Q1209 1065 1221 1059T1245 1039T1262 1013T1280 979L1366 809H1706Q1776 809 1827 759T1878 637V-45Q1878
-115 1828 -165T1706 -215H342Q271 -215 221 -165T170 -45ZM639 338Q639 180 751 68T1024 -45Q1183 -45 1295 67T1407 338Q1407 498 1296 610T1024 723T752 611T639 338ZM811 338Q811 427 873 490T1024 553T1175 490T1237 338Q1237 250 1175 188T1024 125T873 187T811
338ZM1536 588T1536 553T1561 493T1622 467T1681 492T1706 553T1682 612T1622 637T1562 613Z" />
<glyph unicode="2" glyph-name="two" horiz-adv-x="2048" d="M86 723V979Q86 1014 110 1039T170 1065L342 979H938Q1009 979 1059 929T1110 809H512Q419 809 341 762T217 637H170Q135 637 111 662T86 723ZM342 125V467Q342 538 392 587T512 637H1366Q1436 637
1486 588T1536 467V125Q1536 54 1486 5T1366 -45H512Q442 -45 392 4T342 125ZM512 416T512 381T537 322T598 297T657 321T682 381T658 441T598 467T538 442ZM1661 637H1706L1878 809Q1913 809 1937 784T1962 723V211Q1962 176 1938 151T1878 125L1706 297V467Q1706
561 1661 637Z" />
<glyph unicode="3" glyph-name="three" horiz-adv-x="2048" d="M170 -45V637Q170 708 221 758T342 809H1706Q1776 809 1827 759T1878 637V-45H1706V297H342V-45H170ZM512 125H1536V-387H512V125ZM512 979V1149H1536V979H512ZM1536 588T1536 553T1561 493T1622
467T1681 492T1706 553T1682 612T1622 637T1562 613Z" />
<glyph unicode="4" glyph-name="four" horiz-adv-x="2048" d="M176 487Q176 505 176 536T181 658T194 831T220 1016T262 1192Q276 1248 322 1284T426 1321H598V893L426 809V125L598 41V-387H426Q365 -387 319 -348T260 -250Q176 79 176 487ZM768 -387V1321H1706Q1776
1321 1827 1271T1878 1149V-215Q1878 -286 1827 -336T1706 -387H768ZM1004 -109Q1004 -145 1028 -170T1087 -195T1148 -170T1174 -109T1149 -50T1087 -25Q1052 -25 1028 -49T1004 -109ZM1004 147Q1004 111 1028 86T1087 61T1148 86T1174 147T1149 206T1087 231Q1052
231 1028 207T1004 147ZM1004 403Q1004 367 1028 342T1087 317T1148 342T1174 403T1149 462T1087 487Q1052 487 1028 463T1004 403ZM1260 -109Q1260 -145 1284 -170T1343 -195T1404 -170T1430 -109T1405 -50T1343 -25Q1308 -25 1284 -49T1260 -109ZM1260 147Q1260
111 1284 86T1343 61T1404 86T1430 147T1405 206T1343 231Q1308 231 1284 207T1260 147ZM1260 403Q1260 367 1284 342T1343 317T1404 342T1430 403T1405 462T1343 487Q1308 487 1284 463T1260 403ZM1516 -109Q1516 -145 1540 -170T1599 -195T1660 -170T1686 -109T1661
-50T1599 -25Q1564 -25 1540 -49T1516 -109ZM1516 147Q1516 111 1540 86T1599 61T1660 86T1686 147T1661 206T1599 231Q1564 231 1540 207T1516 147ZM1516 403Q1516 367 1540 342T1599 317T1660 342T1686 403T1661 462T1599 487Q1564 487 1540 463T1516 403Z" />
<glyph unicode="5" glyph-name="five" horiz-adv-x="2048" d="M512 -360V1294Q509 1364 560 1415T682 1466Q684 1466 686 1465T690 1464H1358Q1359 1464 1361 1465T1366 1466Q1437 1466 1488 1415T1536 1294V-360Q1536 -427 1489 -476T1376 -530H672Q606 -525
559 -476T512 -360ZM598 -188H1450V1122H598V-188ZM924 -319T924 -360T953 -430T1024 -459T1094 -430T1124 -360T1095 -290T1024 -260T954 -289ZM930 1294Q930 1278 946 1278H1102Q1118 1278 1118 1294Q1118 1313 1102 1313H946Q930 1313 930 1294Z" />
<glyph unicode="6" glyph-name="six" horiz-adv-x="2048" d="M367 -303V1239Q367 1276 389 1299T449 1323H1599Q1636 1323 1658 1300T1681 1239V-303Q1681 -340 1659 -362T1599 -385H449Q412 -385 390 -363T367 -303ZM512 -215H1536V1149H512V-215ZM983 -315Q983
-332 995 -344T1024 -356T1053 -344T1065 -315Q1065 -296 1053 -284T1024 -272T995 -284T983 -315Z" />
<glyph unicode="7" glyph-name="seven" horiz-adv-x="2048" d="M86 -88L256 82V1022Q256 1054 283 1080T342 1106H1706Q1738 1106 1765 1080T1792 1022V82L1962 -88Q1962 -124 1939 -149T1878 -174H170Q133 -174 110 -150T86 -88ZM342 82H1706V1022H342V82ZM784
-80Q784 -88 811 -88H1237Q1264 -88 1264 -80Q1264 -78 1262 -78L1208 -23Q1201 -16 1176 -16H872Q846 -16 842 -23L786 -78L784 -80Z" />
<glyph unicode="8" glyph-name="eight" horiz-adv-x="2048" d="M256 25V1167Q256 1195 275 1214T322 1233H1726Q1754 1233 1773 1214T1792 1167V25Q1792 -3 1774 -22T1726 -41H1178L1204 -244L1247 -287V-293Q1246 -297 1235 -299T1212 -302L1200 -303H848Q803
-303 799 -293V-287L844 -244L870 -41H322Q293 -41 275 -22T256 25ZM342 272H1706V1149H342V272ZM981 154T981 135T993 104T1024 92T1055 104T1067 135T1055 166T1024 178T993 166Z" />
<glyph unicode="9" glyph-name="nine" horiz-adv-x="2048" d="M342 381V553H512V381Q512 169 662 19T1024 -131T1386 19T1536 381V553H1706V381Q1706 210 1628 62T1413 -180T1110 -295V-389Q1222 -397 1294 -419T1366 -471V-557H682V-471Q682 -442 754 -420T938
-389V-295Q772 -275 636 -181T421 62T342 381ZM682 381V1149Q682 1290 782 1390T1024 1491T1265 1391T1366 1149V381Q1366 240 1266 141T1024 41T783 140T682 381Z" />
<glyph unicode=":" glyph-name="colon" horiz-adv-x="2048" d="M170 41V893Q170 964 221 1014T342 1065H963L623 1403L653 1434L1022 1065H1026L1395 1434L1425 1403L1085 1065H1706Q1776 1065 1827 1015T1878 893V41Q1878 -30 1827 -80T1706 -131H342Q272 -131
221 -81T170 41ZM342 82Q342 65 354 53T383 41H1323Q1340 41 1353 53T1366 82V850Q1366 868 1354 880T1323 893H383Q366 893 354 881T342 850V82ZM342 -215H1706V-301H342V-215ZM1493 521T1493 467T1530 376T1622 338Q1675 338 1712 375T1749 467T1712 557T1622
594Q1568 594 1531 558ZM1493 809Q1493 755 1530 718T1622 680Q1675 680 1712 717T1749 809Q1749 862 1712 899T1622 936Q1568 936 1531 899T1493 809Z" />
<glyph unicode=";" glyph-name="semicolon" horiz-adv-x="2048" d="M170 -45V979H651L1020 1348L1051 1319L711 979H1878V-45H170ZM338 467Q338 457 348 457H629Q639 457 639 467Q639 479 629 479V477L350 479H348Q338 479 338 467ZM340 424Q340 421 344 418T352
414H629Q639 414 639 424Q639 436 629 436H352Q348 436 344 432T340 424ZM340 520T340 510T352 500H629Q639 500 639 510T629 520H352Q340 520 340 510ZM350 383Q350 371 360 371V373L629 371Q639 371 639 383Q639 393 629 393H360Q350 393 350 383ZM350 563T350
553T360 543H629Q639 543 639 553T629 563H360Q350 563 350 553ZM365 350T365 340T377 330H629Q639 330 639 340T629 350H377Q365 350 365 340ZM365 606T365 596T377 586H629Q639 586 639 596T629 606H377Q365 606 365 596ZM389 307T389 297T399 287H629Q639 287
639 297T629 307H399Q389 307 389 297ZM389 639Q389 627 399 627V629L629 627Q639 627 639 639Q639 649 629 649H399Q389 649 389 639ZM422 264T422 254T434 244H629Q639 244 639 254T629 264H434Q422 264 422 254ZM422 680Q422 677 426 674T434 670H629Q639 670
639 680Q639 692 629 692H434Q430 692 426 688T422 680ZM471 211Q471 201 483 201H629Q639 201 639 211Q639 223 629 223V221L483 223Q478 223 475 220T471 211ZM471 723Q471 713 483 713H629Q639 713 639 723Q639 735 629 735V733L483 735Q478 735 475 732T471
723ZM559 168Q559 158 569 158H629Q639 158 639 168Q639 180 629 180H569Q559 180 559 168ZM559 776T559 766T569 756H629Q639 756 639 766T629 776H569Q559 776 559 766ZM682 168Q682 165 686 162T694 158H754Q764 158 764 168Q764 180 754 180H694Q690 180 686
176T682 168ZM682 211Q682 201 694 201H840Q850 201 850 211Q850 223 840 223V221L694 223Q690 223 686 220T682 211ZM682 264T682 254T694 244H889Q899 244 899 254T889 264H694Q682 264 682 254ZM682 307T682 297T694 287H924Q934 287 934 297T924 307H694Q682
307 682 297ZM682 350T682 340T694 330H946Q956 330 956 340T946 350H694Q682 350 682 340ZM682 383Q682 378 686 375T694 371V373L961 371H963Q973 371 973 383Q973 393 963 393H694Q682 393 682 383ZM682 424Q682 421 686 418T694 414H971Q981 414 981 424Q981
436 971 436H694Q690 436 686 432T682 424ZM682 467Q682 457 694 457H975Q985 457 985 467Q985 471 982 475T975 479L973 477L694 479Q690 479 686 476T682 467ZM682 520T682 510T694 500H971Q981 500 981 510T971 520H694Q682 520 682 510ZM682 563T682 553T694
543H963Q973 543 973 553T963 563H694Q682 563 682 553ZM682 606T682 596T694 586H946Q956 586 956 596T946 606H694Q682 606 682 596ZM682 639Q682 634 686 631T694 627V629L924 627Q934 627 934 639Q934 649 924 649H694Q682 649 682 639ZM682 680Q682 677 686
674T694 670H889Q899 670 899 680Q899 692 889 692H694Q690 692 686 688T682 680ZM682 723Q682 713 694 713H840Q850 713 850 723Q850 735 840 735V733L694 735Q690 735 686 732T682 723ZM682 776T682 766T694 756H754Q764 756 764 766T754 776H694Q682 776 682
766ZM1110 510Q1110 491 1122 479T1151 467Q1170 467 1182 479T1194 510Q1194 528 1182 540T1151 553Q1134 553 1122 540T1110 510ZM1110 637Q1110 620 1122 607T1151 594Q1169 594 1181 606T1194 637Q1194 656 1182 668T1151 680Q1134 680 1122 668T1110 637ZM1110
766Q1110 747 1122 735T1151 723Q1170 723 1182 735T1194 766Q1194 784 1182 796T1151 809Q1134 809 1122 796T1110 766ZM1237 230T1237 211T1249 180T1280 168T1311 180T1323 211T1311 242T1280 254T1249 242ZM1366 230T1366 211T1378 180T1407 168Q1426 168 1438
180T1450 211T1438 242T1407 254Q1390 254 1378 242ZM1536 246T1536 211T1561 151T1622 125T1681 150T1706 211T1682 271T1622 297T1562 272ZM1536 381H1706V809H1536V381Z" />
<glyph unicode="&lt;" glyph-name="less" horiz-adv-x="2048" d="M170 -207Q170 -111 274 -33T516 45Q616 45 682 -6V1065L1706 1235V-2Q1706 -75 1599 -145T1358 -215Q1252 -215 1181 -165T1110 -37Q1110 52 1197 125T1407 213Q1415 213 1431 214T1454 215Q1551
215 1622 166V967L768 823V-172Q768 -245 660 -316T420 -387Q314 -387 242 -336T170 -207Z" />
<glyph unicode="=" glyph-name="equal" horiz-adv-x="2048" d="M383 -88H682V-387H383V-88ZM383 -387L469 -344H639V-174L682 -88L598 -174V-301H469L383 -387ZM725 -45L811 -2H981V168L1024 254L938 168V41H811L725 -45ZM725 -45V254H1024V-45H725ZM725 -88H1024V-387H725V-88ZM725
-387L811 -344H981V-174L1024 -88L938 -174V-301H811L725 -387ZM1067 -88H1366V-387H1067V-88ZM1067 -387L1151 -344H1323V-174L1366 -88L1280 -174V-301H1151L1067 -387ZM1067 487L1151 530H1323V702L1366 786L1280 702V573H1151L1067 487ZM1067 487V786H1366V487H1067ZM1067
829L1151 872H1323V1042L1366 1128L1280 1042V915H1151L1067 829ZM1067 829V1128H1366V829H1067ZM1407 147L1493 190H1663V360L1706 446L1622 360V231H1493L1407 147ZM1407 147V446H1706V147H1407ZM1407 487V786H1706V487H1407ZM1407 487L1493 530H1663V702L1706
786L1622 702V573H1493L1407 487Z" />
<glyph unicode="&gt;" glyph-name="greater" horiz-adv-x="2048" d="M20 -12Q20 1 23 16L86 528Q140 428 234 363T440 297Q579 297 688 382T834 600Q794 484 695 411T469 338Q311 338 199 450T86 723Q86 882 198 994T469 1106Q639 1106 756 979H1292Q1409 1106
1579 1106Q1738 1106 1850 994T1962 723Q1962 563 1850 451T1579 338Q1456 338 1358 409T1219 594Q1256 467 1363 386T1606 305Q1717 305 1812 371T1962 539L2025 16Q2028 1 2028 -12Q2028 -107 1959 -173T1790 -240Q1705 -240 1635 -188T1524 -51L1262 467H786L524
-51Q488 -126 410 -183T258 -240H256Q158 -240 89 -173T20 -12ZM233 659H362L428 723L362 786H233V659ZM406 487H532V616L469 682L406 616V487ZM406 829L469 764L532 829V958H406V829ZM512 723L575 659H705V786H575L512 723ZM854 723Q854 702 874 702H981Q990 702
997 708T1004 723T997 737T981 743H874Q854 743 854 723ZM1044 732T1044 723T1051 708T1067 702H1174Q1194 702 1194 723Q1194 743 1174 743H1067Q1058 743 1051 738ZM1366 752T1366 723T1386 673T1436 651Q1466 651 1486 672T1507 723T1487 774T1436 795Q1407
795 1387 774ZM1507 582Q1507 552 1528 531T1579 510T1630 531T1651 582Q1651 611 1630 631T1579 651T1528 631T1507 582ZM1507 864Q1507 835 1528 815T1579 795T1630 815T1651 864Q1651 894 1630 915T1579 936T1528 915T1507 864ZM1651 753T1651 723T1671 672T1720
651T1770 672T1792 723T1771 773T1720 795T1671 774Z" />
<glyph unicode="?" glyph-name="question" horiz-adv-x="2048" d="M426 893Q426 1015 473 1125T601 1316T791 1443T1024 1491T1256 1444T1447 1316T1574 1126T1622 893Q1622 688 1496 528T1174 315Q1148 309 1130 289T1110 242V125H768V297Q788 424 877 519T1092
645V647Q1174 669 1227 737T1280 893Q1280 999 1205 1074T1024 1149T843 1074T768 893H426ZM682 -407T682 -301T757 -120T938 -45T1119 -120T1194 -301T1119 -482T938 -557T757 -482Z" />
<glyph unicode="@" glyph-name="at" horiz-adv-x="2048" d="M170 -430V1362H1878V-430H170ZM299 -25H469V133H299V-25ZM299 -143V-301H469V-143H299ZM299 250H469V408H299V250ZM299 526H469V684H299V526ZM299 801H469V958H299V801ZM299 1077H469V1235H299V1077ZM598
-258Q598 -275 610 -288T639 -301H1407Q1425 -301 1437 -289T1450 -258V369Q1450 384 1438 396T1407 408H639Q622 408 610 396T598 369V-258ZM598 565Q598 550 610 538T639 526H1407Q1425 526 1437 538T1450 565V1192Q1450 1210 1438 1222T1407 1235H639Q622 1235
610 1222T598 1192V565ZM1579 -25H1749V133H1579V-25ZM1579 -143V-301H1749V-143H1579ZM1579 250H1749V408H1579V250ZM1579 526H1749V684H1579V526ZM1579 801H1749V958H1579V801ZM1579 1077H1749V1235H1579V1077Z" />
<glyph unicode="A" glyph-name="A" horiz-adv-x="2048" d="M86 -301V1235H1962V-301H86ZM170 -215H1878V1149H170V-215ZM426 -45L895 424L1194 125L1493 723L1706 297V-45H426ZM426 696T426 766T476 886T598 936Q668 936 718 886T768 766Q768 695 718 645T598
594T477 645Z" />
<glyph unicode="B" glyph-name="B" horiz-adv-x="2048" d="M111 373Q111 701 342 907Q448 997 595 1050T915 1104V1036Q680 989 561 885Q440 779 440 561Q440 438 479 367Q514 393 546 409T619 436T709 446Q841 446 913 356Q983 268 983 168Q983 2 866 -84Q747
-172 594 -172Q369 -172 238 -10Q111 150 111 373ZM1051 373Q1051 543 1118 674Q1256 950 1556 1055Q1707 1104 1870 1104V1036Q1632 989 1513 885Q1393 777 1393 561Q1393 426 1434 367Q1533 446 1661 446Q1794 446 1866 356Q1937 267 1937 168Q1937 2 1819 -84Q1703
-172 1548 -172Q1322 -172 1184 -10Q1051 150 1051 373Z" />
<glyph unicode="C" glyph-name="C" horiz-adv-x="2048" d="M111 766Q111 933 227 1018Q348 1104 500 1104Q726 1104 862 944Q997 780 997 561Q997 246 752 27Q650 -64 500 -118T178 -172V-102Q413 -55 535 49Q655 154 655 371Q655 505 614 567Q560 526 508 507T385
487Q250 487 180 578Q111 665 111 766ZM1065 766Q1065 932 1182 1018Q1300 1104 1454 1104Q1681 1104 1808 944Q1937 780 1937 561Q1937 233 1706 27Q1603 -65 1454 -118T1130 -172V-102Q1368 -55 1487 49Q1608 155 1608 371Q1608 498 1567 567Q1466 487 1339 487Q1205
487 1135 578Q1065 666 1065 766Z" />
<glyph unicode="D" glyph-name="D" horiz-adv-x="2048" d="M100 449V492L723 829V678L342 467L723 258V106L100 449ZM682 -131L1206 1065H1366L842 -131H682ZM1323 106V258L1702 467L1323 678V829L1944 492V449L1323 106Z" />
<glyph unicode="E" glyph-name="E" horiz-adv-x="2048" d="M236 297H532V-387H236V297ZM662 -387V893H961V-387H662ZM1087 -387V1321H1386V-387H1087ZM1516 -387V637H1812V-387H1516Z" />
<glyph unicode="F" glyph-name="F" horiz-adv-x="2048" d="M150 328T150 467T193 736T315 971T499 1156T734 1278T1004 1321V467L1606 -137Q1488 -255 1333 -321T1004 -387Q864 -387 734 -344T499 -222T315 -38T193 198ZM1044 510V1362Q1218 1362 1376 1295T1649
1113T1830 842T1898 510H1044ZM1174 424H2028Q2028 250 1962 95T1778 -178L1174 424Z" />
<glyph unicode="G" glyph-name="G" horiz-adv-x="2048" d="M170 -387V1321H342V-215H1878V-387H170ZM406 104V125H426V104H406ZM406 446V467H426V446H406ZM406 786V809H426V786H406ZM406 1128V1149H426V1128H406ZM426 227Q426 259 453 276L848 672Q864 698 897
698Q928 698 944 676L1004 616V637H1024V616H1004L1174 446V467H1194V446H1174L1194 424L1776 1006Q1794 1024 1819 1024T1861 1007T1878 965Q1878 942 1860 920L1237 299Q1219 281 1194 281Q1165 281 1149 303L1006 446H1004V449L897 553L528 184Q509 168 485
168Q460 168 443 185T426 227ZM492 104V125H512V104H492ZM492 446V467H512V446H492ZM492 786V809H512V786H492ZM492 1128V1149H512V1128H492ZM575 104V125H598V104H575ZM575 446V467H598V446H575ZM575 786V809H598V786H575ZM575 1128V1149H598V1128H575ZM662 18V41H682V18H662ZM662
-45H682V-66H662V-45ZM662 104V125H682V104H662ZM662 -131H682V-152H662V-131ZM662 190V211H682V190H662ZM662 274V297H682V274H662ZM662 530V553H682V530H662ZM662 616V637H682V616H662ZM662 702V723H682V702H662ZM662 786V809H682V786H662ZM662 872V893H682V872H662ZM662
958V979H682V958H662ZM662 1042V1065H682V1042H662ZM662 1128V1149H682V1128H662ZM662 1214V1235H682V1214H662ZM748 104V125H768V104H748ZM748 786V809H768V786H748ZM748 1128V1149H768V1128H748ZM831 104V125H854V104H831ZM831 446V467H854V446H831ZM831 786V809H854V786H831ZM831
1128V1149H854V1128H831ZM918 104V125H938V104H918ZM918 446V467H938V446H918ZM918 786V809H938V786H918ZM918 1128V1149H938V1128H918ZM1004 18V41H1024V18H1004ZM1004 -45H1024V-66H1004V-45ZM1004 104V125H1024V104H1004ZM1004 -131H1024V-152H1004V-131ZM1004
190V211H1024V190H1004ZM1004 274V297H1024V274H1004ZM1004 360V381H1024V360H1004ZM1004 702V723H1024V702H1004ZM1004 786V809H1024V786H1004ZM1004 872V893H1024V872H1004ZM1004 958V979H1024V958H1004ZM1004 1042V1065H1024V1042H1004ZM1004 1128V1149H1024V1128H1004ZM1004
1214V1235H1024V1214H1004ZM1087 104V125H1110V104H1087ZM1087 786V809H1110V786H1087ZM1087 1128V1149H1110V1128H1087ZM1174 104V125H1194V104H1174ZM1174 786V809H1194V786H1174ZM1174 1128V1149H1194V1128H1174ZM1260 104V125H1280V104H1260ZM1260 786V809H1280V786H1260ZM1260
1128V1149H1280V1128H1260ZM1343 18V41H1366V18H1343ZM1343 -45H1366V-66H1343V-45ZM1343 104V125H1366V104H1343ZM1343 -131H1366V-152H1343V-131ZM1343 190V211H1366V190H1343ZM1343 274V297H1366V274H1343ZM1343 360V381H1366V360H1343ZM1343 616V637H1366V616H1343ZM1343
702V723H1366V702H1343ZM1343 786V809H1366V786H1343ZM1343 872V893H1366V872H1343ZM1343 958V979H1366V958H1343ZM1343 1042V1065H1366V1042H1343ZM1343 1128V1149H1366V1128H1343ZM1343 1214V1235H1366V1214H1343ZM1430 104V125H1450V104H1430ZM1430 446V467H1450V446H1430ZM1430
786V809H1450V786H1430ZM1430 1128V1149H1450V1128H1430ZM1516 104V125H1536V104H1516ZM1516 446V467H1536V446H1516ZM1516 786V809H1536V786H1516ZM1516 1128V1149H1536V1128H1516ZM1599 104V125H1622V104H1599ZM1599 446V467H1622V446H1599ZM1599 1128V1149H1622V1128H1599ZM1686
18V41H1706V18H1686ZM1686 -45H1706V-66H1686V-45ZM1686 104V125H1706V104H1686ZM1686 -131H1706V-152H1686V-131ZM1686 190V211H1706V190H1686ZM1686 274V297H1706V274H1686ZM1686 360V381H1706V360H1686ZM1686 446V467H1706V446H1686ZM1686 530V553H1706V530H1686ZM1686
616V637H1706V616H1686ZM1686 702V723H1706V702H1686ZM1686 958V979H1706V958H1686ZM1686 1042V1065H1706V1042H1686ZM1686 1128V1149H1706V1128H1686ZM1686 1214V1235H1706V1214H1686ZM1772 104V125H1792V104H1772ZM1772 446V467H1792V446H1772ZM1772 786V809H1792V786H1772ZM1772
1128V1149H1792V1128H1772Z" />
<glyph unicode="H" glyph-name="H" horiz-adv-x="2048" d="M256 -471V1405H1792V-471H256ZM342 -45H1706V1321H342V-45ZM426 41L811 510L1110 211L1407 809L1622 381V41H426ZM512 908T512 979T562 1099T682 1149Q753 1149 803 1099T854 979T804 859T682 809Q612
809 562 858Z" />
<glyph unicode="I" glyph-name="I" horiz-adv-x="2048" d="M170 -387V1321H342V-215H1878V-387H170ZM406 446V467H426V446H406ZM406 786V809H426V786H406ZM406 1128V1149H426V1128H406ZM426 -129V227Q426 259 453 276L848 672Q864 698 897 698Q928 698 944 676L1004
616V637H1024V616H1004L1174 446V467H1194V446H1174L1194 424L1776 1006Q1794 1024 1819 1024T1861 1007T1878 965V961L1876 -129H426ZM492 446V467H512V446H492ZM492 786V809H512V786H492ZM492 1128V1149H512V1128H492ZM575 446V467H598V446H575ZM575 786V809H598V786H575ZM575
1128V1149H598V1128H575ZM662 530V553H682V530H662ZM662 616V637H682V616H662ZM662 702V723H682V702H662ZM662 786V809H682V786H662ZM662 872V893H682V872H662ZM662 958V979H682V958H662ZM662 1042V1065H682V1042H662ZM662 1128V1149H682V1128H662ZM662 1214V1235H682V1214H662ZM748
786V809H768V786H748ZM748 1128V1149H768V1128H748ZM831 786V809H854V786H831ZM831 1128V1149H854V1128H831ZM918 786V809H938V786H918ZM918 1128V1149H938V1128H918ZM1004 702V723H1024V702H1004ZM1004 786V809H1024V786H1004ZM1004 872V893H1024V872H1004ZM1004
958V979H1024V958H1004ZM1004 1042V1065H1024V1042H1004ZM1004 1128V1149H1024V1128H1004ZM1004 1214V1235H1024V1214H1004ZM1087 786V809H1110V786H1087ZM1087 1128V1149H1110V1128H1087ZM1174 786V809H1194V786H1174ZM1174 1128V1149H1194V1128H1174ZM1260 786V809H1280V786H1260ZM1260
1128V1149H1280V1128H1260ZM1343 616V637H1366V616H1343ZM1343 702V723H1366V702H1343ZM1343 786V809H1366V786H1343ZM1343 872V893H1366V872H1343ZM1343 958V979H1366V958H1343ZM1343 1042V1065H1366V1042H1343ZM1343 1128V1149H1366V1128H1343ZM1343 1214V1235H1366V1214H1343ZM1430
786V809H1450V786H1430ZM1430 1128V1149H1450V1128H1430ZM1516 786V809H1536V786H1516ZM1516 1128V1149H1536V1128H1516ZM1599 1128V1149H1622V1128H1599ZM1686 958V979H1706V958H1686ZM1686 1042V1065H1706V1042H1686ZM1686 1128V1149H1706V1128H1686ZM1686 1214V1235H1706V1214H1686ZM1772
1128V1149H1792V1128H1772Z" />
<glyph unicode="J" glyph-name="J" horiz-adv-x="2048" d="M57 430Q57 481 65 526T86 586Q86 590 93 597T164 618T342 637Q456 713 541 756T654 804L682 809H1110Q1113 809 1120 808T1153 796T1212 765T1300 704T1417 604Q1528 588 1620 569T1770 532T1873 496T1940
462T1977 434T1994 415L1997 408Q2003 385 2003 342Q2003 308 1997 262Q1976 239 1947 227T1898 212L1878 211H1851Q1855 235 1855 250Q1855 321 1806 370T1686 420T1566 370T1516 250Q1516 223 1520 211H698Q702 235 702 250Q702 320 652 370T532 420Q461 420
411 370T360 250Q360 241 365 211H342Q285 211 193 246T86 297Q57 326 57 430ZM403 231Q403 285 440 322T532 360Q585 360 622 323T659 231Q659 178 622 141T532 104Q478 104 441 141T403 231ZM1556 231Q1556 285 1594 322T1686 360Q1739 360 1775 323T1812 231Q1812
178 1775 141T1686 104Q1632 104 1594 141T1556 231Z" />
<glyph unicode="K" glyph-name="K" horiz-adv-x="2048" d="M86 250V254Q86 259 86 264Q86 345 146 404Q210 467 299 467H598Q687 467 751 404Q811 345 811 264Q811 259 811 254V250H768V254Q768 258 768 262Q768 327 720 374Q669 424 598 424H299Q227 424 176
374Q129 328 129 264Q129 259 129 254V250H86ZM86 553V1065H1450V553H86ZM170 254Q170 307 207 344T299 381Q352 381 389 344T426 254Q426 200 389 163T299 125Q245 125 208 162T170 254ZM469 254Q469 307 506 344T598 381Q650 381 687 344T725 254Q725 200 688
163T598 125Q544 125 507 162T469 254ZM1024 254Q1024 342 1086 404T1237 467H1536V809Q1561 809 1601 810T1657 811Q1744 811 1799 807T1866 798L1878 793Q1903 775 1932 665T1962 492V211H1876V254Q1876 258 1876 262Q1876 327 1828 374Q1777 424 1706 424Q1646
424 1601 389T1542 297H1403Q1388 353 1342 388T1237 424Q1166 424 1115 374Q1067 327 1067 262Q1067 258 1067 254H1024ZM1110 254Q1110 306 1147 343T1237 381Q1291 381 1328 344T1366 254Q1366 200 1329 163T1237 125Q1184 125 1147 162T1110 254ZM1579 254Q1579
306 1616 343T1706 381Q1760 381 1797 344T1835 254Q1835 200 1798 163T1706 125Q1653 125 1616 162T1579 254Z" />
<glyph unicode="L" glyph-name="L" horiz-adv-x="2048" d="M86 82Q86 242 198 354T469 467Q629 467 741 355T854 82Q854 -76 742 -188T469 -301Q311 -301 199 -189T86 82ZM170 82Q170 -41 258 -128T469 -215Q593 -215 680 -128T768 82Q768 206 681 293T469 381Q346
381 258 294T170 82ZM594 651Q594 719 651 776L961 1085Q978 1102 1001 1102Q1030 1102 1044 1085Q1059 1063 1110 979L1227 788H1450Q1478 788 1497 770T1516 723T1497 676T1450 657H1200Q1159 657 1143 682L1024 803L887 666L1098 551Q1155 518 1155 473Q1155
466 1153 457T1151 446L1110 41Q1110 6 1085 -19T1024 -45T964 -20T938 41L981 403L674 535Q636 552 615 583T594 651ZM1126 1073T1126 1133T1169 1235T1274 1278Q1334 1278 1376 1236T1419 1133T1377 1030T1274 987Q1213 987 1170 1030ZM1194 82Q1194 242 1306
354T1579 467Q1737 467 1849 355T1962 82Q1962 -76 1850 -188T1579 -301Q1419 -301 1307 -189T1194 82ZM1280 82Q1280 -41 1367 -128T1579 -215Q1702 -215 1790 -128T1878 82Q1878 206 1790 293T1579 381Q1454 381 1367 294T1280 82Z" />
<glyph unicode="M" glyph-name="M" horiz-adv-x="2048" d="M86 -88Q86 36 173 123T383 211Q508 211 595 124T682 -88Q682 -211 595 -299T383 -387Q260 -387 173 -299T86 -88ZM123 401Q123 422 141 434Q211 494 285 494Q328 494 383 469Q436 449 797 293V90L369
377Q327 403 281 403Q232 403 188 377Q171 367 160 367Q145 367 134 377T123 401ZM170 -88Q170 -176 232 -238T383 -301Q472 -301 535 -239T598 -88Q598 1 535 63T383 125Q295 125 233 63T170 -88ZM449 561Q449 622 502 690Q542 741 634 863T741 1001Q756 1022
791 1022Q812 1022 825 1012Q842 989 901 913L1040 737L1262 764L1264 766H1272Q1299 766 1318 747T1337 700Q1337 675 1321 657T1278 635L1030 604H1022Q988 604 971 623L838 729L719 575L942 487Q1008 458 1008 408Q1008 404 1007 397T1006 389H1008V-31Q1008
-65 986 -90T928 -115Q896 -115 872 -93T844 -39V326L522 459Q449 492 449 561ZM786 1155Q786 1159 787 1167T788 1180Q798 1249 850 1294T971 1339Q976 1339 984 1338T997 1337Q1062 1328 1106 1280T1155 1167Q1144 1172 1051 1198Q1047 1200 1034 1200Q1014 1200
998 1188T975 1155Q975 1152 974 1148T973 1141Q973 1100 1020 1079Q1026 1076 1066 1055T1133 1020Q1116 973 1098 958L801 1087Q786 1124 786 1155ZM1061 -70V406L1360 483L1432 317L1061 -70ZM1229 556T1229 575T1243 608T1282 623H1419Q1431 623 1444 611T1462
590Q1464 579 1618 256L1528 229L1389 530H1282Q1257 530 1243 543ZM1366 -88Q1366 36 1453 123T1663 211Q1788 211 1875 124T1962 -88Q1962 -211 1875 -299T1663 -387Q1540 -387 1453 -299T1366 -88ZM1450 -88Q1450 -176 1512 -238T1663 -301Q1752 -301 1815 -239T1878
-88Q1878 1 1815 63T1663 125Q1575 125 1513 63T1450 -88ZM1530 537Q1589 565 1657 565Q1702 565 1745 547Q1758 539 1770 530T1788 515L1794 510Q1810 499 1810 479Q1810 465 1800 455T1776 444Q1768 444 1757 451Q1730 471 1686 471Q1629 471 1587 434Q1572 456
1563 472T1545 506T1530 537Z" />
<glyph unicode="N" glyph-name="N" horiz-adv-x="2048" d="M510 -215V1149L1692 467L510 -215Z" />
<glyph unicode="O" glyph-name="O" horiz-adv-x="2048" d="M342 -215V1149H854V-215H342ZM1194 -215V1149H1706V-215H1194Z" />
<glyph unicode="P" glyph-name="P" horiz-adv-x="2048" d="M342 -215V1149H1706V-215H342Z" />
<glyph unicode="Q" glyph-name="Q" horiz-adv-x="2048" d="M170 -215V1149L1350 467L170 -215ZM1536 -215V1149H1878V-215H1536Z" />
<glyph unicode="R" glyph-name="R" horiz-adv-x="2048" d="M170 -215V1149H512V-215H170ZM698 467L1878 1149V-215L698 467Z" />
<glyph unicode="S" glyph-name="S" horiz-adv-x="2048" d="M170 -43V981L1055 469L170 -43ZM1057 -43V981L1942 469L1057 -43Z" />
<glyph unicode="T" glyph-name="T" horiz-adv-x="2048" d="M106 469L991 981V-43L106 469ZM993 469L1878 981V-43L993 469Z" />
<glyph unicode="U" glyph-name="U" horiz-adv-x="2048" d="M170 297V594Q170 754 282 866T555 979H1108V1194L1696 852L1108 510V723H555Q501 723 464 686T426 594V446L170 297ZM352 82L940 424V211H1493Q1547 211 1584 248T1622 338V487L1878 637V338Q1878 180
1766 68T1493 -45H940V-260L352 82Z" />
<glyph unicode="V" glyph-name="V" horiz-adv-x="2048" d="M170 -258Q170 -205 209 -166L1147 772Q1110 845 1110 936Q1110 1021 1142 1094T1228 1216T1350 1293T1493 1321Q1554 1321 1610 1303T1707 1257T1782 1190L1356 1075L1305 887L1444 748L1870 862L1864
838Q1847 775 1811 722T1725 631T1616 574T1493 553Q1403 553 1329 590L391 -348Q355 -387 299 -387Q248 -387 209 -348T170 -258Z" />
<glyph unicode="W" glyph-name="W" horiz-adv-x="2048" d="M145 137L358 313Q342 391 342 467T358 621L145 797Q200 943 299 1063L557 965Q670 1072 825 1120L870 1393Q947 1405 1024 1405Q1102 1405 1178 1393L1223 1120Q1378 1072 1491 965L1749 1063Q1848 943
1903 797L1690 621Q1706 543 1706 467T1690 313L1903 137Q1848 -9 1749 -129L1491 -31Q1378 -138 1223 -186L1178 -459Q1101 -471 1024 -471Q946 -471 870 -459L825 -186Q670 -138 557 -31L299 -129Q200 -9 145 137ZM682 608T682 467T782 226T1024 125T1265 225T1366
467T1266 708T1024 809T783 709Z" />
<glyph unicode="X" glyph-name="X" horiz-adv-x="2048" d="M115 698Q142 808 209 932L471 866Q535 955 614 1014L545 1274Q650 1337 776 1372L915 1141Q962 1149 1024 1149Q1070 1149 1120 1143L1255 1376Q1365 1349 1489 1282L1423 1020Q1512 956 1571 877L1831
946Q1894 841 1929 715L1698 575Q1706 528 1706 467Q1706 421 1700 371L1933 236Q1906 126 1839 2L1577 68Q1513 -21 1434 -80L1503 -340Q1398 -403 1272 -438L1133 -207Q1086 -215 1024 -215Q978 -215 928 -209L793 -442Q683 -415 559 -348L625 -86Q536 -22 477
57L217 -12Q154 93 119 219L350 358Q342 405 342 467Q342 513 348 563L115 698ZM682 467Q682 404 707 343T775 233T884 155T1024 125Q1066 125 1108 136T1187 167T1258 218T1315 286T1352 370T1366 467Q1366 530 1341 591T1273 701T1164 779T1024 809Q961 809 900
784T790 716T712 607T682 467Z" />
<glyph unicode="Y" glyph-name="Y" horiz-adv-x="2048" d="M147 659L305 729V745Q305 808 319 860L182 965Q210 1037 260 1106L422 1042Q462 1087 524 1124L502 1296Q583 1328 655 1339L725 1182H741Q800 1182 856 1167L961 1305Q1033 1277 1102 1227L1038 1065Q1087
1019 1120 963L1292 985Q1323 908 1335 831L1178 760V745Q1178 686 1163 631L1300 526Q1271 451 1223 385L1061 449Q1016 401 958 367L981 195Q904 164 827 152L756 309H741Q683 309 627 324L522 186Q450 214 381 264L444 426Q399 466 362 528L190 506Q158 587
147 659ZM522 745Q522 649 588 588T741 526Q836 526 898 592T961 745Q961 768 950 805Q930 876 871 920T741 965Q719 965 682 954Q611 934 567 875T522 745ZM1010 -96L1116 -8Q1108 46 1108 70Q1108 97 1116 147L1010 236Q1037 310 1087 369L1217 319Q1278 377
1352 397L1374 535Q1412 541 1450 541Q1491 541 1528 535L1550 397Q1626 376 1686 319L1815 369Q1865 310 1892 236L1784 147Q1794 105 1794 70Q1794 37 1784 -8L1892 -96Q1867 -165 1815 -229L1686 -180Q1625 -234 1550 -258L1528 -395Q1491 -401 1450 -401Q1412
-401 1374 -395L1352 -258Q1278 -235 1217 -180L1087 -229Q1035 -165 1010 -96ZM1280 141T1280 71T1330 -50T1450 -100Q1522 -100 1572 -51T1622 70T1572 191T1450 242Q1380 242 1330 192Z" />
<glyph unicode="Z" glyph-name="Z" horiz-adv-x="2048" d="M291 608Q291 626 299 637L555 979Q537 997 537 1020Q537 1031 541 1042T550 1060L555 1065Q684 1212 725 1255V1448Q761 1424 787 1398T826 1351T845 1313T853 1287L854 1278Q954 1278 1041 1247T1192
1163T1308 1041T1394 896T1450 741T1483 594T1493 467V-2H1280Q1256 -2 1238 -6T1212 -17T1200 -29T1194 -40V-45Q1194 -47 1194 -50T1199 -60T1212 -73T1238 -83T1280 -88Q1295 -88 1304 -100T1313 -131Q1313 -147 1304 -160T1280 -174Q1256 -174 1238 -178T1212
-188T1200 -200T1194 -211V-215Q1194 -217 1194 -220T1199 -230T1212 -243T1238 -253T1280 -258H1450Q1455 -258 1464 -259T1495 -266T1534 -285T1565 -324T1579 -387V-557H469V-387Q469 -351 482 -325T515 -286T552 -267T584 -259L598 -258H768Q792 -258 810 -254T836
-243T848 -231T854 -220V-215Q854 -213 854 -211T849 -201T836 -189T810 -179T768 -174Q754 -174 745 -161T735 -131Q735 -113 744 -101T768 -88Q792 -88 810 -84T836 -73T848 -60T854 -50V-45Q854 -43 854 -40T849 -30T836 -17T810 -7T768 -2H598Q560 -2 539 30T514
94L512 125Q512 130 514 139T538 182T598 254L895 553Q924 582 924 612Q924 629 917 646T902 672L895 680Q877 698 852 698Q829 698 811 680L555 467Q549 460 540 456T526 452L520 451Q518 451 515 451T505 453T491 458T478 469T469 487Q452 465 428 465Q410 465
389 476T354 499L342 510Q291 558 291 608Z" />
<glyph unicode="[" glyph-name="bracketleft" horiz-adv-x="2048" d="M170 328T170 467T213 736T335 972T519 1156T754 1278T1024 1321T1293 1278T1529 1156T1713 972T1835 737T1878 467T1835 198T1713 -38T1529 -222T1294 -344T1024 -387T755 -344T519 -222T335
-38T213 197ZM342 606T342 467T396 202T541 -16T758 -161T1024 -215T1289 -161T1507 -16T1652 201T1706 467T1652 732T1507 950T1290 1095T1024 1149T759 1095T541 950T396 733ZM426 446V487H598V446H426ZM907 436Q936 486 1206 952L1354 868L1141 498L1362 371L1276
221Q1018 371 907 436ZM1004 41H1044V-131H1004V41ZM1004 893V1065H1044V893H1004ZM1493 446V487H1663V446H1493Z" />
<glyph unicode="\" glyph-name="backslash" horiz-adv-x="2048" d="M170 680Q170 854 256 1001T489 1235T811 1321Q984 1321 1131 1235T1364 1002T1450 680Q1450 509 1368 367L1829 -94Q1878 -143 1878 -215Q1878 -284 1829 -336Q1777 -385 1708 -385Q1636 -385
1587 -336L1126 125Q980 41 811 41Q637 41 490 126T256 359T170 680ZM342 680Q342 553 404 445T575 274T811 211Q938 211 1046 274T1217 445T1280 680Q1280 808 1217 916T1046 1086T811 1149Q616 1149 479 1012T342 680Z" />
<glyph unicode="]" glyph-name="bracketright" horiz-adv-x="2048" d="M170 -215Q170 -145 221 -94L680 367Q598 515 598 680Q598 854 683 1001T916 1235T1237 1321Q1411 1321 1558 1235T1792 1002T1878 680Q1878 507 1792 360T1559 127T1237 41Q1071 41 922 125L463
-336Q411 -385 342 -385Q270 -385 221 -336Q170 -282 170 -215ZM768 680Q768 553 831 445T1002 274T1237 211Q1365 211 1473 274T1645 445T1708 680Q1708 808 1645 916T1474 1086T1237 1149Q1110 1149 1002 1087T831 916T768 680Z" />
<glyph unicode="^" glyph-name="asciicircum" horiz-adv-x="2048" d="M170 680Q170 854 256 1001T489 1235T811 1321Q984 1321 1131 1235T1364 1002T1450 680Q1450 509 1368 367L1829 -94Q1878 -143 1878 -215Q1878 -284 1829 -336Q1777 -385 1708 -385Q1636 -385
1587 -336L1126 125Q980 41 811 41Q637 41 490 126T256 359T170 680ZM342 680Q342 553 404 445T575 274T811 211Q938 211 1046 274T1217 445T1280 680Q1280 808 1217 916T1046 1086T811 1149Q616 1149 479 1012T342 680ZM512 594V766H725V979H895V766H1110V594H895V381H725V594H512Z"
/>
<glyph unicode="_" glyph-name="underscore" horiz-adv-x="2048" d="M170 680Q170 854 256 1001T489 1235T811 1321Q984 1321 1131 1235T1364 1002T1450 680Q1450 509 1368 367L1829 -94Q1878 -143 1878 -215Q1878 -284 1829 -336Q1777 -385 1708 -385Q1636 -385
1587 -336L1126 125Q980 41 811 41Q637 41 490 126T256 359T170 680ZM342 680Q342 553 404 445T575 274T811 211Q938 211 1046 274T1217 445T1280 680Q1280 808 1217 916T1046 1086T811 1149Q616 1149 479 1012T342 680ZM512 594V766H1110V594H512Z" />
<glyph unicode="`" glyph-name="grave" horiz-adv-x="2048" d="M166 -391L649 1057L1083 1491H1323L897 1063Q855 1073 827 1073Q763 1073 727 1040L729 1038L723 1036Q655 845 584 632T475 300L438 182Q476 182 529 150T628 72T706 -27T739 -119Q1141 16 1593
166L1595 172L1597 170Q1630 206 1630 270Q1630 298 1620 340L2048 766V526L1614 92L166 -391ZM1116 963L1645 1491H1886L1255 860Q1174 927 1116 963ZM1417 698L2048 1329V1087L1520 559Q1484 617 1417 698Z" />
<glyph unicode="a" glyph-name="a" horiz-adv-x="2048" d="M172 -385L414 338L1083 1010L1145 950L489 293L453 330L451 328Q416 232 380 126T326 -40L307 -98Q347 -98 403 -154T459 -250Q660 -182 885 -106L887 -104L850 -68L1507 588L1567 526L895 -143L172
-385ZM569 213L1225 870L1286 809L629 154L569 213ZM711 72L1366 729L1427 668L770 12L711 72ZM1145 1071L1204 1130L1688 647L1628 588L1145 1071ZM1266 1192L1325 1251Q1404 1327 1507 1327Q1612 1327 1688 1251L1808 1130Q1884 1054 1884 950Q1884 847 1808
768L1749 709L1266 1192Z" />
<glyph unicode="b" glyph-name="b" horiz-adv-x="2048" d="M166 100Q166 261 279 371L1004 1096L1063 1034L338 311Q252 222 252 100Q252 -25 338 -111Q426 -199 551 -199Q674 -199 762 -111L1726 854Q1790 918 1790 1006Q1790 1090 1725 1154T1575 1219Q1486
1219 1425 1155L762 492Q723 453 723 401Q723 350 762 312T852 274Q905 274 942 311L1516 885L1575 823L1004 250Q939 188 852 188T700 250Q639 314 639 401Q639 489 700 553L1364 1217Q1453 1303 1575 1303Q1699 1303 1788 1217Q1874 1128 1874 1006Q1874 881
1788 795L821 -172Q708 -285 551 -285Q395 -285 279 -172Q166 -59 166 100Z" />
<glyph unicode="c" glyph-name="c" horiz-adv-x="2048" d="M29 711T29 811T67 1005T180 1174Q252 1247 346 1285T541 1323Q641 1323 735 1285T903 1174Q984 1093 1024 981Q1064 1093 1145 1174Q1218 1247 1312 1285T1507 1323Q1608 1323 1702 1285T1868 1174Q1942
1100 1980 1006T2019 811T1981 617T1868 449Q1685 267 1266 -154L1024 -395L180 449Q106 523 68 617Z" />
<glyph unicode="d" glyph-name="d" horiz-adv-x="2048" d="M29 715T29 815T67 1009T180 1176Q252 1250 346 1288T541 1327T735 1289T903 1176Q984 1098 1024 983Q1062 1093 1145 1176Q1219 1250 1313 1288T1507 1327T1701 1289T1870 1176Q1942 1104 1980 1010T2019
815T1981 621T1870 453Q1685 268 1266 -152L1024 -393L180 453Q106 527 68 621ZM115 815Q115 637 240 512L1024 -272Q1135 -159 1343 48T1599 303L1808 512Q1933 637 1933 815Q1933 991 1808 1116T1507 1241Q1329 1241 1204 1116Q1147 1056 1108 963L1024 764L942
958Q903 1054 844 1116Q719 1241 541 1241Q365 1241 240 1116T115 815Z" />
<glyph unicode="e" glyph-name="e" horiz-adv-x="2048" d="M117 676L774 725L1024 1335L1274 725L1931 676L1427 250L1583 -389L1024 -43L465 -389L621 250L117 676Z" />
<glyph unicode="f" glyph-name="f" horiz-adv-x="2048" d="M117 676L774 725L1024 1335L1274 725L1931 676L1427 250L1583 -389L1024 -43L465 -389L621 250L117 676ZM317 610L709 279L588 -219L1024 51L1460 -219L1339 279L1731 610L1219 649L1024 1124L829 649L317 610Z" />
<glyph unicode="g" glyph-name="g" horiz-adv-x="2048" d="M168 6V1096Q168 1119 183 1134T221 1149H1825Q1847 1149 1862 1134T1878 1096V6Q1878 -17 1863 -32T1825 -47H1556V-369L1237 -47H221Q198 -47 183 -32T168 6Z" />
<glyph unicode="h" glyph-name="h" horiz-adv-x="2048" d="M170 -186V438Q170 450 179 458T199 467H426V168Q426 108 459 74Q491 40 544 41Q546 41 547 41Q633 41 1081 43V-186Q1081 -198 1073 -206T1053 -215H512L342 -387V-215H199Q188 -215 179 -207T170 -186ZM512
168V1106Q512 1125 524 1137T555 1149H1835Q1853 1149 1865 1137T1878 1106V168Q1878 151 1865 138T1835 125H1622V-131L1366 125H555Q537 125 525 137T512 168Z" />
<glyph unicode="i" glyph-name="i" horiz-adv-x="2048" d="M682 -45H854V467H682V637H1194V-45H1366V-215H682V-45ZM768 959T768 1065T843 1246T1024 1321T1205 1246T1280 1065T1205 884T1024 809T843 884Z" />
<glyph unicode="j" glyph-name="j" horiz-adv-x="2048" d="M307 1126Q307 1159 331 1185T391 1212Q421 1212 444 1195T475 1149L872 -336Q874 -342 874 -356Q874 -392 851 -417T788 -442Q760 -442 737 -425T707 -379L309 1104Q307 1112 307 1126ZM662 1110Q696
1092 741 1092Q813 1092 931 1139T1155 1243T1379 1347T1571 1395Q1615 1395 1651 1376Q1612 1188 1563 1047Q1624 963 1690 881T1792 758L1827 717Q1792 735 1747 735Q1675 735 1557 688T1334 584T1110 480T918 432Q874 432 838 451L662 1110Z" />
<glyph unicode="k" glyph-name="k" horiz-adv-x="2048" d="M170 735V737V1235Q170 1270 195 1295T256 1321H756Q772 1321 784 1309L1767 326H1769Q1782 313 1782 295T1769 264H1767L1225 -281Q1212 -291 1196 -291Q1177 -291 1165 -279Q1165 -276 1163 -276L180
707Q170 720 170 735ZM342 1100T342 1065T366 1005T426 979T486 1004T512 1065T487 1124T426 1149T367 1125Z" />
<glyph unicode="l" glyph-name="l" horiz-adv-x="2048" d="M219 735V737V1235Q219 1270 243 1295T303 1321H801H805Q822 1321 834 1309L1817 326Q1829 314 1829 295T1817 264L1272 -281Q1259 -291 1243 -291Q1222 -291 1212 -276H1210L229 707Q219 717 219 735ZM274
-342V442L573 -385H315Q298 -385 286 -373T274 -342ZM274 571L1053 -338L801 -442Q795 -444 786 -444Q758 -444 745 -418V-416L274 571ZM389 1100T389 1065T414 1005T475 979T534 1004T559 1065T535 1124T475 1149T415 1125Z" />
<glyph unicode="m" glyph-name="m" horiz-adv-x="2048" d="M342 41Q448 41 523 116T598 297V1149Q598 1239 652 1308T793 1399Q854 1333 892 1237T938 1026V55Q900 41 854 41H342ZM870 1405H1194Q1335 1405 1435 1281T1536 979V-471L1280 -215L1024 -471V979Q1024
1112 983 1223T870 1405Z" />
<glyph unicode="n" glyph-name="n" horiz-adv-x="2048" d="M0 -387L242 176L639 254L1024 176L1083 188L844 745Q811 826 811 901Q811 1061 923 1173T1194 1286Q1354 1286 1466 1174T1579 901Q1579 830 1548 752L1327 238L1407 254L1806 176L2048 -387L1524 -285L1024
-387L524 -285L0 -387ZM129 -315L537 -229L549 -168L629 -248L737 -270L565 -98L580 -27L844 -291L950 -313L594 43L610 113L1024 -301V-328L1511 -229L1561 -240L1501 -180L1479 -72L1669 -262L1778 -287L1454 37L1432 145L1884 -309L1919 -315L1882 -219L1450
211L1415 219L1311 199L1194 -74L1098 156L1024 141V125L1006 145L899 166L1024 41V-45L793 186L684 209L1024 -131V-215L625 184L633 219L309 147L129 -315ZM1004 901Q1004 823 1060 767T1194 711Q1273 711 1329 767T1386 901Q1386 981 1330 1037T1194 1094Q1116
1094 1060 1037T1004 901ZM1559 188L1827 -80L1774 57L1669 164L1559 188Z" />
<glyph unicode="o" glyph-name="o" horiz-adv-x="2048" d="M512 809Q512 1021 662 1171T1024 1321T1386 1171T1536 809Q1536 702 1495 606L1024 -492L557 600Q512 698 512 809ZM768 915T768 809T843 628T1024 553T1205 628T1280 809T1205 990T1024 1065T843 990Z" />
<glyph unicode="p" glyph-name="p" horiz-adv-x="2048" d="M170 -215V467Q170 537 220 587T342 637H498Q477 616 438 553H342Q307 553 282 528T256 467V-215Q256 -250 281 -275T342 -301H1366Q1401 -301 1425 -276T1450 -215V-100L1536 -14V-215Q1536 -286 1486
-336T1366 -387H342Q272 -387 221 -337T170 -215ZM477 41Q477 215 544 372T726 644T997 825T1329 893V1235L1927 637L1329 41V381Q1097 381 901 336T591 212T477 41Z" />
<glyph unicode="q" glyph-name="q" horiz-adv-x="2048" d="M170 361T170 467T245 648T426 723Q488 723 541 696T631 621L1368 938Q1366 950 1366 979Q1366 1085 1441 1160T1622 1235T1803 1160T1878 979T1803 798T1622 723Q1562 723 1509 749T1421 821L680 504Q682
492 682 467Q682 440 680 428L1419 111Q1453 157 1506 184T1622 211Q1728 211 1803 136T1878 -45T1803 -226T1622 -301T1441 -226T1366 -45Q1366 -20 1368 -8L629 309Q593 264 540 238T426 211Q320 211 245 286Z" />
<glyph unicode="r" glyph-name="r" horiz-adv-x="2048" d="M86 -321T86 -215T161 -34T342 41T523 -34T598 -215T523 -396T342 -471T161 -396ZM256 381V723Q464 723 653 642T980 424T1199 97T1280 -301H938Q938 -162 884 -36T739 182T522 327T256 381ZM256 1065V1405Q430
1405 599 1370T920 1271T1209 1114T1462 906T1670 653T1828 363T1927 43T1962 -301H1622Q1622 -115 1573 62T1436 388T1222 664T946 879T619 1016T256 1065Z" />
<glyph unicode="s" glyph-name="s" horiz-adv-x="2048" d="M170 637Q170 776 213 906T335 1142T519 1326T754 1448T1024 1491T1293 1448T1529 1326T1713 1142T1835 907T1878 637Q1878 387 1745 180T1393 -131L1411 70V76Q1547 170 1626 317T1706 637Q1706 776
1652 902T1507 1120T1290 1266T1024 1321T759 1267T541 1121T396 903T342 637Q342 465 421 318T637 76V70L653 -131Q436 -27 303 180T170 637ZM512 637Q512 849 662 999T1024 1149T1386 999T1536 637Q1536 533 1496 439T1384 274Q1354 361 1294 428Q1366 522 1366
637Q1366 778 1266 878T1024 979T783 879T682 637Q682 522 754 428Q694 361 664 274Q592 344 552 438T512 637ZM791 150V168Q791 255 858 318T1024 381T1190 318T1257 168V150L1194 -471H854L791 150ZM854 566T854 637T904 758T1024 809T1144 759T1194 637T1144
517T1024 467T904 516Z" />
<glyph unicode="t" glyph-name="t" horiz-adv-x="2048" d="M10 -197Q453 -175 612 -12Q459 -6 364 78T242 287Q300 274 344 274Q370 274 410 281Q275 304 182 408T88 637Q88 661 96 707Q104 704 130 693T174 675T216 662T256 655Q88 795 88 971V979Q92 1131 143
1208Q312 987 555 877Q600 857 627 848Q661 834 735 815Q737 814 741 813T748 811Q750 811 754 810T760 809Q805 800 823 797Q841 795 903 780T995 764Q1004 764 1008 766Q999 806 999 850Q999 968 1052 1068T1200 1228T1411 1288Q1572 1288 1710 1157Q1866 1178
1993 1278Q1949 1119 1812 1022Q1938 1044 2042 1083Q2011 1017 1962 970T1839 877V850Q1839 844 1838 830T1837 809H1839Q1839 646 1796 491T1676 205T1488 -37T1246 -224T960 -344T643 -387Q482 -387 318 -336T10 -197Z" />
<glyph unicode="u" glyph-name="u" horiz-adv-x="2048" d="M426 254V1192Q426 1281 488 1343T639 1405Q728 1405 791 1343T854 1192V893H1493Q1582 893 1644 831T1706 680Q1706 592 1644 530T1493 467H854V254Q854 166 915 104T1063 41H1493Q1582 41 1644 -22T1706
-174Q1706 -262 1644 -324T1493 -387H1065Q935 -387 817 -336T613 -199T477 5T426 254Z" />
<glyph unicode="v" glyph-name="v" horiz-adv-x="2048" d="M598 553V809H768V1067Q768 1136 786 1191T832 1281T901 1341T978 1378T1061 1396T1134 1404T1194 1405Q1300 1405 1450 1374L1403 1102Q1393 1103 1367 1107T1318 1113T1272 1116Q1110 1116 1110 979V809H1403L1384
553H1110V-387H768V553H598Z" />
<glyph unicode="w" glyph-name="w" horiz-adv-x="2048" d="M127 290T127 467T252 768T555 893T856 769T981 467T857 166T555 41T253 165ZM1067 290T1067 467T1191 768T1493 893T1794 769T1919 467T1795 166T1493 41T1192 165Z" />
<glyph unicode="x" glyph-name="x" horiz-adv-x="2048" d="M63 842Q63 850 66 857T73 868L76 872Q126 918 461 1188Q540 1253 633 1253Q723 1253 790 1191T874 1018Q938 609 974 468Q1002 355 1028 313Q1069 250 1098 250Q1103 250 1108 251T1119 256T1129 263T1141
274T1152 285T1165 298T1178 313Q1221 358 1257 418T1343 582Q1382 662 1382 735Q1382 798 1349 836T1241 874Q1194 874 1139 860Q1161 940 1193 1005T1261 1113T1338 1187T1416 1236T1493 1263T1558 1275T1610 1278H1642Q1791 1278 1872 1197T1954 971Q1954 843
1886 672Q1844 568 1787 466T1666 278T1548 124T1432 -7T1343 -96T1284 -152Q1064 -356 907 -356Q718 -356 623 -57Q568 115 536 234T485 434T461 535Q440 612 417 669T376 754T340 798T314 818T297 821H295Q291 821 283 819T241 795T166 735Q154 729 145 729T129
732T118 740L115 743Q97 770 68 821Q63 828 63 842Z" />
<glyph unicode="y" glyph-name="y" horiz-adv-x="2048" d="M342 467Q342 606 395 732T540 949T757 1095T1022 1149V1364L1610 1022L1022 682V893Q847 893 723 769T598 467Q598 396 625 317L401 188Q342 315 342 467ZM438 -88L1026 252V41Q1201 41 1325 165T1450
467Q1450 537 1423 616L1647 745Q1706 618 1706 467Q1706 328 1653 202T1508 -15T1291 -161T1026 -215V-430L438 -88Z" />
<glyph unicode="z" glyph-name="z" horiz-adv-x="2048" d="M340 465H342V467Q342 477 342 486Q342 614 392 732Q446 859 537 950T755 1095T1022 1149V1364L1610 1022L1022 682V893Q847 893 723 769T598 467Q598 396 625 317H623Q670 192 780 113Q881 40 1001 40Q1012
40 1022 41H1026Q1053 41 1067 43Q1070 43 1076 44T1085 45T1093 46T1102 47Q1136 56 1171 68Q1294 113 1372 222T1450 467Q1450 537 1423 616L1647 745Q1706 618 1706 467Q1706 296 1628 149T1414 -93T1112 -209Q1066 -215 1022 -215Q883 -215 757 -162T540 -17T394
200T340 465Z" />
<glyph unicode="{" glyph-name="braceleft" horiz-adv-x="2048" d="M170 211V723H768V1321H1280V723H1878V211H1280V-387H768V211H170Z" />
<glyph unicode="|" glyph-name="bar" horiz-adv-x="2048" d="M170 211V723H1878V211H170Z" />
<glyph unicode="}" glyph-name="braceright" horiz-adv-x="2048" d="M170 211V723H1878V211H170ZM725 -174Q725 -50 812 37T1024 125T1235 38T1323 -174Q1323 -297 1236 -384T1024 -471T813 -384T725 -174ZM725 1106Q725 1230 812 1317T1024 1405T1235 1318T1323
1106Q1323 983 1236 896T1024 809T813 896T725 1106Z" />
<glyph unicode="~" glyph-name="asciitilde" horiz-adv-x="2048" d="M240 45L662 467L240 889L602 1251L1024 829L1446 1251L1808 889L1386 467L1808 45L1446 -317L1024 104L602 -317L240 45Z" />
<glyph unicode="" glyph-name="uni007F" horiz-adv-x="2048" />
</font>
</defs>
</svg>
